<svg width="62" height="60" viewBox="0 0 62 60" fill="none" xmlns="http://www.w3.org/2000/svg">
<g clip-path="url(#clip0_926_1261)">
<path d="M51.24 0H10.2C4.5667 0 0 4.5667 0 10.2V49.704C0 55.3373 4.5667 59.904 10.2 59.904H51.24C56.8733 59.904 61.44 55.3373 61.44 49.704V10.2C61.44 4.5667 56.8733 0 51.24 0Z" fill="#330000"/>
<path d="M29.7738 35.9497H20.253L18.3157 41.9672C18.2893 42.077 18.2255 42.1741 18.1352 42.2418C18.0449 42.3096 17.9338 42.3437 17.821 42.3383H12.9987C12.7239 42.3383 12.6277 42.1871 12.7102 41.8847L20.9535 18.1443C21.0358 17.8971 21.1184 17.6156 21.2007 17.2995C21.3087 16.7495 21.3639 16.1907 21.3656 15.6303C21.36 15.5911 21.3636 15.5512 21.3761 15.5136C21.3886 15.476 21.4097 15.4419 21.4377 15.4139C21.4657 15.3859 21.4998 15.3648 21.5373 15.3522C21.5749 15.3397 21.6149 15.3361 21.6541 15.3416H28.2075C28.3995 15.3416 28.5094 15.4105 28.5373 15.548L37.8932 41.9259C37.9758 42.201 37.8932 42.3385 37.646 42.3383H32.2878C32.1957 42.3485 32.1032 42.3248 32.0273 42.2717C31.9515 42.2186 31.8976 42.1397 31.8757 42.0498L29.7738 35.9497ZM21.7366 30.7566H28.2488L28.1559 30.4501L28.0069 29.9648L27.9006 29.624L27.7309 29.0874L27.3702 27.9577L27.0529 26.9562L26.229 24.3474C26.0239 23.6989 25.8271 23.0478 25.6386 22.3943L25.4878 21.8639L25.3117 21.2367L25.0429 20.2647L24.9925 20.0816H24.9514C24.7452 21.0709 24.4941 22.0504 24.1988 23.0168L23.5873 24.9839L23.2508 26.0706L22.9112 27.1707C22.8498 27.3695 22.7888 27.566 22.7276 27.7602L22.5452 28.3357L22.3638 28.8978L22.1833 29.4459L22.0038 29.9804C21.9442 30.1563 21.8847 30.3299 21.8254 30.5012L21.7366 30.7566ZM43.4569 19.7106C43.0365 19.7275 42.6173 19.6554 42.2267 19.4992C41.8361 19.3429 41.4828 19.106 41.1901 18.8039C40.8981 18.4886 40.6713 18.1188 40.5227 17.7156C40.3742 17.3124 40.3068 16.8838 40.3244 16.4545C40.3094 16.0295 40.3843 15.6061 40.5441 15.212C40.7039 14.8179 40.945 14.4619 41.2518 14.1673C41.8434 13.5994 42.6313 13.2816 43.4514 13.28L43.5392 13.281C44.5285 13.281 45.3049 13.5762 45.8682 14.1671C46.1525 14.4741 46.3734 14.8341 46.5184 15.2267C46.6633 15.6192 46.7295 16.0364 46.713 16.4545C46.7302 16.8855 46.6607 17.3156 46.5085 17.7193C46.3563 18.1229 46.1245 18.4918 45.8269 18.8041C45.5264 19.1003 45.1697 19.3333 44.7778 19.4895C44.3859 19.6457 43.9668 19.722 43.545 19.7137L43.4569 19.7106ZM40.6129 41.9259V22.2248C40.6129 21.9776 40.7223 21.8538 40.9426 21.8538H46.0124C46.232 21.8538 46.3419 21.9774 46.3422 22.2248V41.9259C46.3422 42.201 46.2322 42.3385 46.0124 42.3383H40.9839C40.7497 42.3383 40.6263 42.2149 40.6141 41.9682L40.6129 41.9259Z" fill="#FF9A00"/>
</g>
<defs>
<clipPath id="clip0_926_1261">
<rect width="61.44" height="60" fill="white"/>
</clipPath>
</defs>
</svg>
