<svg width="43" height="60" viewBox="0 0 43 60" fill="none" xmlns="http://www.w3.org/2000/svg">
<g clip-path="url(#clip0_926_1228)">
<path d="M21.2486 59.8485L3.933 55.0415L0.0742188 11.7617H42.4748L38.612 55.0349L21.2486 59.8485Z" fill="#264DE4"/>
<path d="M35.3049 52.2792L38.6058 15.3003H21.2744V56.1689L35.3049 52.2792Z" fill="#2965F1"/>
<path d="M8.91988 31.3523L9.39556 36.6604H21.2741V31.3523H8.91988ZM7.96387 20.6086L8.44636 25.9167H21.2741V20.6086H7.96387ZM21.2741 45.138L21.2508 45.1442L15.3392 43.5479L14.9613 39.3145H9.63273L10.3763 47.649L21.2496 50.6673L21.2741 50.6607V45.138Z" fill="#EBEBEB"/>
<path d="M10.0527 0H16.4815V2.68853H12.7413V5.37706H16.4819V8.06543H10.0527V0ZM17.7675 0H24.1964V2.33784H20.456V2.80537H24.1964V8.18244H17.7676V5.72742H21.5081V5.25989H17.7673L17.7675 0ZM25.4824 0H31.9113V2.33784H28.1709V2.80537H31.9113V8.18244H25.4824V5.72742H29.2228V5.25989H25.4825V0H25.4824Z" fill="black"/>
<path d="M33.5946 31.3523L34.5528 20.6086H21.256V25.9167H28.7356L28.2526 31.3523H21.256V36.6604H27.7924L27.1761 43.5446L21.2559 45.1425V50.6648L32.1378 47.649L32.2176 46.7522L33.4651 32.7777L33.5946 31.3523Z" fill="white"/>
</g>
<defs>
<clipPath id="clip0_926_1228">
<rect width="42.5485" height="60" fill="white"/>
</clipPath>
</defs>
</svg>
