<svg width="24" height="24" viewBox="0 0 24 24" fill="none" xmlns="http://www.w3.org/2000/svg">
<path d="M12 20.9999C9.48333 20.9999 7.354 20.1289 5.612 18.3869C3.87 16.6449 2.99933 14.5159 3 11.9999C3 9.6999 3.75 7.7039 5.25 6.0119C6.75 4.3199 8.66667 3.33257 11 3.0499C11.4167 2.9999 11.7417 3.1499 11.975 3.4999C12.2083 3.8499 12.2 4.21657 11.95 4.5999C11.6667 5.03324 11.454 5.49157 11.312 5.9749C11.17 6.45824 11.0993 6.96657 11.1 7.4999C11.1 8.9999 11.625 10.2749 12.675 11.3249C13.725 12.3749 15 12.8999 16.5 12.8999C17.0167 12.8999 17.5293 12.8249 18.038 12.6749C18.5467 12.5249 19.0007 12.3166 19.4 12.0499C19.75 11.8166 20.1083 11.8042 20.475 12.0129C20.8417 12.2216 21 12.5506 20.95 12.9999C20.7167 15.2999 19.7377 17.2082 18.013 18.7249C16.2883 20.2416 14.284 20.9999 12 20.9999Z" fill="black"/>
</svg>
