<svg width="43" height="60" viewBox="0 0 43 60" fill="none" xmlns="http://www.w3.org/2000/svg">
<g clip-path="url(#clip0_926_1213)">
<path d="M42.4748 11.7617L38.612 55.0349L21.2486 59.8485L3.933 55.0415L0.0742188 11.7617H42.4748Z" fill="#E44D26"/>
<path d="M21.2734 56.1689L35.304 52.2792L38.6048 15.3003H21.2734V56.1689Z" fill="#F16529"/>
<path d="M13.7659 25.9167H21.275V20.6086H7.96484L8.09182 22.0327L9.39653 36.6604H21.275V31.3523H14.251L13.7659 25.9167ZM14.9622 39.3145H9.63371L10.3773 47.649L21.2506 50.6673L21.275 50.6607V45.138L21.2518 45.1442L15.3402 43.5479L14.9622 39.3145Z" fill="#EBEBEB"/>
<path d="M4.01953 0H6.71704V2.6651H9.18468V0H11.8824V8.07058H9.18485V5.36809H6.7172V8.07058H4.0197L4.01953 0ZM15.4295 2.6764H13.0551V0H20.5034V2.6764H18.1275V8.07058H15.43V2.6764H15.4295ZM21.6855 0H24.4981L26.2283 2.83579L27.9569 0H30.7707V8.07058H28.0842V4.07036L26.2283 6.93989H26.1818L24.3248 4.07036V8.07058H21.6855V0ZM32.1132 0H34.8115V5.40299H38.605V8.07058H32.113V0H32.1132Z" fill="black"/>
<path d="M21.256 36.6604H27.7924L27.1761 43.5446L21.2559 45.1425V50.6648L32.1378 47.649L32.2176 46.7522L33.4651 32.7777L33.5946 31.3523H21.256V36.6604ZM21.256 25.9038V25.9167H34.0776L34.1839 24.7237L34.4259 22.0327L34.5528 20.6086H21.256V25.9038Z" fill="white"/>
</g>
<defs>
<clipPath id="clip0_926_1213">
<rect width="42.5485" height="60" fill="white"/>
</clipPath>
</defs>
</svg>
