<svg width="60" height="60" viewBox="0 0 60 60" fill="none" xmlns="http://www.w3.org/2000/svg">
<g clip-path="url(#clip0_926_1219)">
<path d="M0 0H60V60H0V0Z" fill="#F7DF1E"/>
<path d="M15.7756 50.1403L20.367 47.3616C21.253 48.9321 22.0588 50.261 23.9916 50.261C25.8444 50.261 27.0127 49.5364 27.0127 46.7173V27.5459H32.6511V46.797C32.6511 52.6369 29.2278 55.2952 24.2333 55.2952C19.7227 55.2952 17.1045 52.9592 15.7754 50.1399M35.7137 49.5361L40.3046 46.8781C41.5133 48.8517 43.0841 50.3016 45.8628 50.3016C48.1993 50.3016 49.689 49.1335 49.689 47.5224C49.689 45.5892 48.1585 44.9044 45.5809 43.7771L44.1716 43.1724C40.1035 41.441 37.4052 39.266 37.4052 34.6746C37.4052 30.4456 40.6271 27.2234 45.6617 27.2234C49.2463 27.2234 51.8239 28.4721 53.6764 31.7344L49.2861 34.5539C48.3193 32.8221 47.2726 32.1375 45.6615 32.1375C44.0101 32.1375 42.9629 33.1847 42.9629 34.5539C42.9629 36.2454 44.0101 36.9305 46.4265 37.9777L47.836 38.5817C52.629 40.636 55.3273 42.7301 55.3273 47.442C55.3273 52.5171 51.3402 55.2959 45.9835 55.2959C40.7478 55.2959 37.3646 52.7989 35.7134 49.5364" fill="black"/>
</g>
<defs>
<clipPath id="clip0_926_1219">
<rect width="60" height="60" fill="white"/>
</clipPath>
</defs>
</svg>
