<svg width="59" height="60" viewBox="0 0 59 60" fill="none" xmlns="http://www.w3.org/2000/svg">
<g clip-path="url(#clip0_926_1224)">
<path d="M58.1491 13.55C58.1707 13.6298 58.1818 13.7121 58.1818 13.7948V26.6512C58.1818 26.9871 58.0023 27.2973 57.7107 27.4643L46.9205 33.6773V45.9909C46.9205 46.1557 46.8772 46.3176 46.795 46.4603C46.7127 46.6031 46.5944 46.7217 46.4518 46.8043L23.9273 59.7709C23.8757 59.8 23.8195 59.8187 23.7632 59.8389C23.742 59.8457 23.7223 59.8587 23.7 59.8646C23.5425 59.906 23.377 59.906 23.2195 59.8646C23.1936 59.8577 23.1702 59.8434 23.1457 59.8341C23.0941 59.8152 23.0402 59.7989 22.9911 59.7709L0.471136 46.8041C0.328032 46.722 0.209123 46.6035 0.126405 46.4608C0.0436864 46.318 8.53098e-05 46.1559 0 45.9909L0 7.42184C0 7.3373 0.0118182 7.25525 0.0327273 7.17571C0.0397727 7.14866 0.0561364 7.12411 0.0656818 7.09707C0.0831818 7.04798 0.0997727 6.99752 0.125455 6.95184C0.142955 6.92139 0.168636 6.89684 0.189773 6.86866C0.216818 6.83116 0.241364 6.79252 0.272955 6.75957C0.3 6.73275 0.335227 6.71275 0.365682 6.68934C0.399773 6.66116 0.43 6.63071 0.468636 6.60843H0.469773L11.7302 0.125251C11.8728 0.0431897 12.0345 0 12.199 0C12.3635 0 12.5251 0.0431897 12.6677 0.125251L23.9282 6.60843H23.9305C23.968 6.63207 23.9998 6.66116 24.0336 6.68821C24.0641 6.71161 24.0982 6.73275 24.125 6.75866C24.158 6.79252 24.1814 6.83139 24.2093 6.86866C24.2293 6.89684 24.2564 6.92139 24.2727 6.95184C24.2995 6.99866 24.3148 7.04798 24.3336 7.0973C24.343 7.12411 24.3593 7.14866 24.3664 7.17684C24.388 7.25661 24.3991 7.33911 24.3993 7.42184V31.5114L33.7825 26.1084V13.7937C33.7825 13.7118 33.7943 13.6284 33.8155 13.55C33.8236 13.5218 33.8389 13.4973 33.8482 13.4705C33.867 13.4212 33.8834 13.3705 33.9091 13.325C33.9266 13.2946 33.9523 13.27 33.9725 13.2418C34.0005 13.2043 34.0239 13.1657 34.0566 13.1328C34.0839 13.1059 34.1177 13.0859 34.1482 13.0625C34.1834 13.0343 34.2139 13.0039 34.2514 12.9816H34.2525L45.5141 6.49843C45.6566 6.41626 45.8183 6.37301 45.9828 6.37301C46.1474 6.37301 46.309 6.41626 46.4516 6.49843L57.712 12.9816C57.7518 13.005 57.7823 13.0343 57.8175 13.0612C57.8466 13.0848 57.8807 13.1059 57.9077 13.1316C57.9405 13.1657 57.9639 13.2043 57.9918 13.2418C58.0132 13.27 58.0389 13.2946 58.0555 13.325C58.0823 13.3705 58.0975 13.4212 58.1161 13.4705C58.1268 13.4973 58.142 13.5218 58.1491 13.55ZM56.3048 26.1087V15.4177L52.3641 17.6862L46.9202 20.8207V31.5116L56.3059 26.1087H56.3048ZM45.0443 45.4484V34.75L39.6893 37.8084L24.3982 46.5357V57.3343L45.0443 45.448V45.4484ZM1.87705 9.04457V45.4484L22.5209 57.3334V46.5368L11.7364 40.4332L11.733 40.4309L11.7284 40.4287C11.692 40.4075 11.6614 40.3771 11.6275 40.3514C11.598 40.3278 11.5641 40.3091 11.5384 40.2832L11.5361 40.2798C11.5057 40.2505 11.4845 40.2141 11.4589 40.1814C11.4352 40.1496 11.4073 40.1228 11.3884 40.09L11.3873 40.0864C11.3661 40.0514 11.3532 40.0091 11.338 39.9693C11.3227 39.9341 11.303 39.9012 11.2934 39.8639V39.8628C11.2818 39.8182 11.2795 39.7712 11.2748 39.7255C11.2702 39.6905 11.2607 39.6553 11.2607 39.62V14.4478L5.81773 11.3118L1.87705 9.04593V9.04457ZM12.2002 2.02116L2.81795 7.42184L12.198 12.8223L21.5789 7.42048L12.198 2.02116H12.2002ZM17.0793 35.7253L22.522 32.5921V9.04457L18.5818 11.3132L13.1375 14.4475V37.9948L17.0793 35.7253ZM45.9827 8.39434L36.6018 13.7948L45.9827 19.1955L55.3625 13.7937L45.9827 8.39434ZM45.0441 20.8207L39.6002 17.6862L35.6598 15.4177V26.1087L41.1025 29.2421L45.0443 31.5116V20.8207H45.0441ZM23.4584 44.913L37.2182 37.0575L44.0964 33.1321L34.7223 27.735L23.9293 33.9487L14.0925 39.6118L23.4584 44.913Z" fill="#FF2D20"/>
</g>
<defs>
<clipPath id="clip0_926_1224">
<rect width="58.1818" height="60" fill="white"/>
</clipPath>
</defs>
</svg>
