<svg width="60" height="60" viewBox="0 0 60 60" fill="none" xmlns="http://www.w3.org/2000/svg">
<g clip-path="url(#clip0_926_1236)">
<path d="M18 18L19.62 16.828C19.3722 16.4857 19.0223 16.2307 18.6206 16.0996C18.2189 15.9685 17.786 15.9679 17.384 16.0981C16.9819 16.2283 16.6315 16.4824 16.3828 16.8241C16.1342 17.1658 16.0002 17.5774 16 18H18ZM30 56C23.1044 56 16.4912 53.2607 11.6152 48.3848C6.73928 43.5088 4 36.8956 4 30H0C0 37.9565 3.16071 45.5871 8.7868 51.2132C14.4129 56.8393 22.0435 60 30 60V56ZM56 30C56 33.4144 55.3275 36.7953 54.0209 39.9498C52.7142 43.1042 50.7991 45.9705 48.3848 48.3848C45.9705 50.7991 43.1042 52.7142 39.9498 54.0209C36.7953 55.3275 33.4144 56 30 56V60C37.9565 60 45.5871 56.8393 51.2132 51.2132C56.8393 45.5871 60 37.9565 60 30H56ZM30 4C33.4144 4 36.7953 4.67251 39.9498 5.97913C43.1042 7.28575 45.9705 9.2009 48.3848 11.6152C50.7991 14.0295 52.7142 16.8958 54.0209 20.0502C55.3275 23.2047 56 26.5856 56 30H60C60 22.0435 56.8393 14.4129 51.2132 8.7868C45.5871 3.16071 37.9565 0 30 0V4ZM30 0C22.0435 0 14.4129 3.16071 8.7868 8.7868C3.16071 14.4129 0 22.0435 0 30H4C4 23.1044 6.73928 16.4912 11.6152 11.6152C16.4912 6.73928 23.1044 4 30 4V0ZM20 48V18H16V48H20ZM16.38 19.172L42.38 55.172L45.62 52.828L19.62 16.828L16.38 19.172ZM40 16V40H44V16H40Z" fill="black"/>
</g>
<defs>
<clipPath id="clip0_926_1236">
<rect width="60" height="60" fill="white"/>
</clipPath>
</defs>
</svg>
