<svg width="60" height="60" viewBox="0 0 60 60" fill="none" xmlns="http://www.w3.org/2000/svg">
<path d="M30.0008 56.25C29.2925 56.2503 28.5967 56.064 27.9833 55.71L21.5633 51.9094C20.6052 51.3731 21.072 51.1838 21.3889 51.0731C22.4079 50.7583 23.3836 50.3174 24.2933 49.7606C24.3694 49.7254 24.4533 49.7102 24.537 49.7164C24.6206 49.7227 24.7013 49.7501 24.7714 49.7963L29.7045 52.7269C29.7964 52.7755 29.8987 52.8009 30.0027 52.8009C30.1066 52.8009 30.2089 52.7755 30.3008 52.7269L49.5383 41.6231C49.6283 41.5692 49.7028 41.4928 49.7544 41.4014C49.806 41.31 49.833 41.2068 49.8327 41.1019V18.8906C49.8327 18.784 49.8053 18.6792 49.7531 18.5863C49.7009 18.4933 49.6256 18.4154 49.5345 18.36L30.297 7.26563C30.2063 7.21454 30.104 7.1877 29.9999 7.1877C29.8957 7.1877 29.7934 7.21454 29.7027 7.26563L10.4764 18.3638C10.3847 18.418 10.3086 18.495 10.2553 18.5873C10.2021 18.6796 10.1737 18.7841 10.1727 18.8906V41.0925C10.1729 41.1972 10.201 41.3 10.2541 41.3902C10.3071 41.4805 10.3832 41.5551 10.4745 41.6063L15.7508 44.6513C18.6102 46.08 20.3614 44.3963 20.3614 42.705V20.7844C20.3614 20.6352 20.4207 20.4921 20.5262 20.3866C20.6317 20.2811 20.7747 20.2219 20.9239 20.2219H23.3614C23.5106 20.2219 23.6537 20.2811 23.7592 20.3866C23.8647 20.4921 23.9239 20.6352 23.9239 20.7844V42.7069C23.9239 46.5225 21.8464 48.7069 18.2277 48.7069C16.6665 48.7341 15.1298 48.3166 13.797 47.5031L8.74017 44.6025C8.12627 44.245 7.61689 43.7327 7.26287 43.1168C6.90885 42.5009 6.72259 41.8029 6.72267 41.0925V18.8906C6.72084 18.1791 6.90632 17.4797 7.26046 16.8626C7.61461 16.2454 8.12493 15.7324 8.74017 15.375L27.9795 4.2675C28.5993 3.92844 29.2944 3.75073 30.0008 3.75073C30.7072 3.75073 31.4023 3.92844 32.022 4.2675L51.2595 15.375C51.8734 15.7318 52.3829 16.2434 52.7372 16.8586C53.0916 17.4738 53.2783 18.1713 53.2789 18.8813V41.0925C53.2779 41.8029 53.0909 42.5007 52.7367 43.1164C52.3824 43.7322 51.8732 44.2445 51.2595 44.6025L32.022 55.71C31.4075 56.0646 30.7103 56.2508 30.0008 56.25Z" fill="#83CD29"/>
<path d="M26.3516 33.662C26.3516 33.5128 26.4108 33.3697 26.5163 33.2642C26.6218 33.1587 26.7649 33.0995 26.9141 33.0995H29.4022C29.5351 33.0999 29.6636 33.1474 29.7649 33.2336C29.8661 33.3197 29.9336 33.4389 29.9553 33.5701C30.3303 36.1032 31.4553 37.3801 36.5422 37.3801C40.5941 37.3801 42.3209 36.4632 42.3209 34.3126C42.3209 33.0732 41.8316 32.1526 35.5334 31.5357C30.2684 31.0145 27.0134 29.8482 27.0134 25.6407C27.0134 21.7595 30.2853 19.4438 35.7697 19.4438C41.9328 19.4438 44.9834 21.5832 45.3697 26.1732C45.3756 26.2499 45.3657 26.3269 45.3407 26.3995C45.3157 26.4722 45.276 26.539 45.2242 26.5957C45.1724 26.6525 45.1094 26.698 45.0393 26.7295C44.9692 26.761 44.8934 26.7778 44.8166 26.7788H42.3116C42.1859 26.7771 42.0644 26.7333 41.9666 26.6545C41.8687 26.5756 41.8 26.4663 41.7716 26.3438C41.1734 23.6795 39.7091 22.8282 35.7716 22.8282C31.3466 22.8282 30.8328 24.3695 30.8328 25.5245C30.8328 26.9232 31.4403 27.332 37.4141 28.1213C43.3259 28.9032 46.1347 30.0095 46.1347 34.1645C46.1347 38.357 42.6397 40.757 36.5441 40.757C28.1159 40.7682 26.3516 36.9038 26.3516 33.662Z" fill="#83CD29"/>
</svg>
