<svg width="68" height="60" viewBox="0 0 68 60" fill="none" xmlns="http://www.w3.org/2000/svg">
<g clip-path="url(#clip0_926_1222)">
<path d="M55.3903 19.4273C54.6733 19.1813 53.9503 18.9535 53.2218 18.7439C53.3442 18.2439 53.4568 17.75 53.5568 17.2647C55.1984 9.29601 54.1253 2.87627 50.4597 0.762586C46.9453 -1.26373 41.1976 0.849165 35.3929 5.90101C34.8208 6.39978 34.2614 6.91293 33.7153 7.43995C33.3496 7.0895 32.9776 6.74584 32.5992 6.40916C26.5155 1.00759 20.4176 -1.26899 16.7561 0.850744C13.2447 2.88338 12.205 8.91838 13.6829 16.4705C13.8299 17.2184 13.9959 17.9625 14.1808 18.7021C13.3176 18.9473 12.4847 19.2084 11.6876 19.4863C4.555 21.9731 0 25.8702 0 29.9126C0 34.0876 4.89 38.2752 12.3189 40.8144C12.9212 41.0194 13.5285 41.2094 14.1403 41.3842C13.9416 42.1807 13.7652 42.9826 13.6113 43.7889C12.2024 51.21 13.3026 57.1023 16.8045 59.1221C20.4213 61.2079 26.4918 59.0642 32.4026 53.8971C32.8819 53.477 33.3507 53.045 33.8084 52.6015C34.3999 53.1722 35.0071 53.7263 35.6295 54.2631C41.3553 59.19 47.01 61.1794 50.5084 59.1542C54.1218 57.0623 55.2963 50.7323 53.7716 43.031C53.6515 42.4277 53.5168 41.8273 53.3676 41.2305C53.7939 41.1042 54.2124 40.9742 54.6203 40.8389C62.3434 38.2802 67.3684 34.1434 67.3684 29.9126C67.3684 25.8555 62.6663 21.9321 55.3903 19.4273ZM53.7153 38.1073C53.3468 38.2292 52.9689 38.3468 52.5837 38.4613C51.7311 35.7621 50.5805 32.8921 49.1724 29.9265C50.5161 27.0318 51.6224 24.1984 52.4511 21.5168C53.1403 21.7163 53.8089 21.9265 54.4537 22.1484C60.6879 24.2947 64.4905 27.4676 64.4905 29.9126C64.4905 32.5168 60.3837 35.8976 53.7153 38.1073ZM50.9484 43.59C51.6226 46.9952 51.7187 50.0742 51.2721 52.4813C50.8711 54.6442 50.0642 56.086 49.0663 56.6636C46.9434 57.8926 42.4032 56.2952 37.5066 52.0815C36.9277 51.5824 36.3629 51.0673 35.8126 50.5368C37.7111 48.4607 39.6082 46.0473 41.4597 43.3668C44.7166 43.0779 47.7934 42.6052 50.5837 41.9602C50.7181 42.5005 50.8397 43.0439 50.9484 43.59ZM22.9674 56.4513C20.8932 57.1836 19.2411 57.2047 18.2424 56.6289C16.1174 55.4034 15.2339 50.6721 16.4389 44.3257C16.5822 43.5758 16.7462 42.83 16.9308 42.0892C19.6903 42.6997 22.7447 43.1386 26.0092 43.4034C27.8734 46.0263 29.8253 48.4371 31.7924 50.5481C31.3743 50.9526 30.9464 51.3468 30.5089 51.7302C27.895 54.015 25.2758 55.636 22.9674 56.4513ZM13.25 38.0913C9.965 36.9684 7.25211 35.5092 5.39263 33.9168C3.72158 32.486 2.87816 31.0652 2.87816 29.9126C2.87816 27.4594 6.53526 24.3305 12.635 22.2039C13.3753 21.946 14.15 21.7026 14.9539 21.4742C15.7971 24.2163 16.9029 27.0834 18.2374 29.9826C16.8855 32.9247 15.7639 35.8376 14.9126 38.6121C14.3542 38.4521 13.7999 38.2785 13.25 38.0913ZM16.5074 15.9176C15.2413 9.44732 16.0821 4.56653 18.1982 3.34153C20.4518 2.0368 25.4355 3.89706 30.6884 8.56127C31.031 8.86611 31.3679 9.17712 31.6992 9.49416C29.7418 11.596 27.8079 13.9889 25.9603 16.5963C22.7918 16.89 19.7589 17.3615 16.9705 17.9934C16.7987 17.3055 16.6443 16.6132 16.5074 15.9176ZM45.5671 23.0934C44.9085 21.9557 44.2254 20.8324 43.5184 19.7242C45.6679 19.996 47.7274 20.3568 49.6613 20.7978C49.0808 22.6589 48.3571 24.6044 47.5053 26.5992C46.8826 25.4178 46.2364 24.249 45.5671 23.0934ZM33.7166 11.551C35.0439 12.9892 36.3734 14.5947 37.6811 16.3368C35.0284 16.2115 32.3714 16.211 29.7187 16.3352C31.0276 14.6092 32.3684 13.0057 33.7166 11.551ZM21.79 23.1131C21.129 24.2594 20.4949 25.4209 19.8882 26.5968C19.0503 24.6092 18.3332 22.6547 17.7476 20.7673C19.6697 20.3373 21.7195 19.9857 23.8553 19.7189C23.1404 20.8339 22.4518 21.9658 21.79 23.1131ZM23.9166 40.311C21.71 40.0647 19.6295 39.7313 17.7079 39.3129C18.3026 37.3918 19.0355 35.3957 19.8916 33.3655C20.5007 34.5422 21.1375 35.7045 21.8013 36.8513C22.4839 38.0302 23.1908 39.185 23.9166 40.311ZM33.7961 48.4768C32.4318 47.0052 31.0713 45.3771 29.7426 43.626C31.0326 43.6765 32.3476 43.7023 33.6842 43.7023C35.0574 43.7023 36.4147 43.6715 37.7508 43.6121C36.4389 45.3947 35.1145 47.0252 33.7961 48.4768ZM47.5324 33.2618C48.4329 35.3144 49.1918 37.3 49.7945 39.1881C47.8413 39.6339 45.7324 39.9929 43.5103 40.2594C44.2223 39.1306 44.9118 37.9878 45.5784 36.8315C46.2561 35.6563 46.9076 34.4661 47.5324 33.2618ZM43.0855 35.3936C42.0651 37.1664 40.9872 38.9054 39.8537 40.6081C37.8004 40.7535 35.7426 40.8258 33.6842 40.8247C31.5876 40.8247 29.5484 40.7594 27.5847 40.6321C26.4216 38.9333 25.3232 37.1912 24.2918 35.4094C23.2653 33.6371 22.3067 31.8264 21.4176 29.9813C22.3045 28.1357 23.2604 26.3242 24.2834 24.5505L24.2832 24.5507C25.3058 22.7766 26.3954 21.0419 27.5497 19.3505C29.5532 19.1989 31.6076 19.12 33.6839 19.12C35.7697 19.12 37.8271 19.1997 39.83 19.3523C40.9727 21.0412 42.0553 22.7699 43.0761 24.5352C44.1025 26.305 45.0711 28.1077 45.9803 29.9405C45.0804 31.792 44.1149 33.6109 43.0855 35.3936ZM49.0224 3.25574C51.2782 4.5568 52.1555 9.80337 50.7382 16.6836C50.6476 17.1226 50.5461 17.5697 50.4355 18.0231C47.6403 17.3778 44.6053 16.8981 41.4276 16.6C39.5766 13.9639 37.6584 11.5673 35.7329 9.49259C36.2375 9.00614 36.7542 8.53231 37.2824 8.07153C42.2561 3.74338 46.9045 2.03443 49.0224 3.25574ZM33.6842 23.8968C37.0066 23.8968 39.7 26.5902 39.7 29.9126C39.7 33.235 37.0066 35.9284 33.6842 35.9284C30.3618 35.9284 27.6684 33.235 27.6684 29.9126C27.6684 26.5902 30.3618 23.8968 33.6842 23.8968Z" fill="#00D8FF"/>
</g>
<defs>
<clipPath id="clip0_926_1222">
<rect width="67.3684" height="60" fill="white"/>
</clipPath>
</defs>
</svg>
