<svg width="80" height="60" viewBox="0 0 80 60" fill="none" xmlns="http://www.w3.org/2000/svg">
<g clip-path="url(#clip0_926_1226)">
<path d="M68.8386 34.5356C66.0555 34.5499 63.6364 35.2203 61.6111 36.2112C60.8677 34.7393 60.1246 33.4281 59.9936 32.4662C59.8477 31.3443 59.673 30.6593 59.8477 29.3187C60.0227 27.9781 60.8096 26.069 60.7949 25.9234C60.7805 25.7778 60.6199 25.0928 59.0171 25.0784C57.4143 25.0637 56.0299 25.3843 55.8696 25.8068C55.7093 26.2293 55.4033 27.1912 55.1993 28.1818C54.9224 29.6393 51.9936 34.8412 50.318 37.5662C49.7786 36.5028 49.3124 35.5699 49.2102 34.8268C49.0646 33.7049 48.8896 33.0199 49.0646 31.6793C49.2396 30.3387 50.0264 28.4299 50.0118 28.284C49.9971 28.1384 49.8367 27.4534 48.2339 27.439C46.6308 27.4243 45.2464 27.7449 45.0864 28.1674C44.9261 28.5903 44.7511 29.5809 44.4161 30.5428C44.0808 31.5046 40.1902 40.1896 39.1702 42.4334C38.758 43.3415 38.3256 44.2404 37.8733 45.1293C37.8733 45.1293 37.8586 45.1731 37.8149 45.2459C37.6728 45.5246 37.5272 45.8015 37.378 46.0765V46.0909C37.1593 46.4846 36.9261 46.8487 36.8096 46.8487C36.7221 46.8487 36.5618 45.7996 36.8386 44.3715C37.4214 41.3553 38.8058 36.6631 38.7914 36.5028C38.7914 36.4153 39.0536 35.5993 37.888 35.1765C36.7511 34.754 36.3433 35.4534 36.2411 35.4534C36.1393 35.4534 36.0661 35.7012 36.0661 35.7012C36.0661 35.7012 37.3343 30.4262 33.6474 30.4262C31.3452 30.4262 28.1683 32.9471 26.5946 35.2203C24.8055 36.1938 23.018 37.1702 21.2321 38.1493C20.3727 38.6303 19.4836 39.1112 18.653 39.5628C18.5946 39.5046 18.5364 39.4315 18.478 39.3734C14.0189 34.6084 5.77144 31.2421 6.12113 24.8453C6.25238 22.5137 7.05363 16.3934 21.9608 8.96181C34.2302 2.91432 43.9936 4.58994 45.6839 8.30588C48.1027 13.6103 40.4527 23.4609 27.7749 24.8887C22.9371 25.4281 20.4014 23.5628 19.7605 22.8634C19.0902 22.1346 18.988 22.0909 18.7402 22.2368C18.3324 22.4556 18.5946 23.1112 18.7402 23.4899C19.1193 24.4806 20.6783 26.2293 23.3158 27.0893C25.6474 27.8468 31.3158 28.2696 38.1793 25.6174C45.8586 22.6446 51.8624 14.3824 50.0993 7.46088C48.3358 0.437128 36.6783 -1.87975 25.6474 2.03994C19.0902 4.37182 11.9789 8.04369 6.86425 12.8234C0.787689 18.5062 -0.174186 23.4462 0.219251 25.5156C1.633 32.8596 11.7605 37.6393 15.8114 41.1802C15.6074 41.2968 15.4177 41.399 15.2577 41.4865C13.2321 42.4918 5.50894 46.5281 3.5855 50.7977C1.39988 55.6356 3.9355 59.104 5.61113 59.5699C10.8133 61.0127 16.1611 58.419 19.0318 54.1346C21.9024 49.8506 21.5527 44.284 20.2268 41.734C20.2121 41.7049 20.1977 41.6756 20.1683 41.6465C20.693 41.3406 21.2321 41.0199 21.7568 40.714C22.7211 40.1439 23.6977 39.5948 24.6858 39.0671C24.1902 40.4224 23.8258 42.0399 23.6511 44.3715C23.4324 47.1112 24.5543 50.6665 26.0261 52.0652C26.6821 52.6777 27.4543 52.6921 27.9499 52.6921C29.6693 52.6921 30.4418 51.264 31.3014 49.5737C32.3505 47.5046 33.2977 45.1003 33.2977 45.1003C33.2977 45.1003 32.1174 51.5993 35.3233 51.5993C36.4889 51.5993 37.6693 50.0837 38.1939 49.3115V49.3259C38.1939 49.3259 38.223 49.2821 38.2814 49.1803C38.398 48.9909 38.4708 48.874 38.4708 48.874V48.8452C38.9371 48.029 39.9864 46.1784 41.5455 43.1037C43.5564 39.1403 45.4946 34.1859 45.4946 34.1859C45.4946 34.1859 45.6696 35.3953 46.2668 37.4062C46.6168 38.5865 47.3449 39.8834 47.928 41.1365C47.4618 41.7924 47.1702 42.1565 47.1702 42.1565L47.1849 42.1712C46.8058 42.6665 46.398 43.2056 45.9461 43.7306C44.3577 45.6246 42.4636 47.7962 42.2011 48.4224C41.8949 49.1656 41.968 49.7049 42.5511 50.1421C42.9736 50.4628 43.7311 50.5062 44.5036 50.4628C45.9318 50.3606 46.9371 50.0109 47.4324 49.7924C48.2049 49.5156 49.1083 49.0928 49.9533 48.4662C51.5127 47.3149 52.4596 45.6684 52.3724 43.4974C52.3286 42.3024 51.9352 41.1074 51.4543 39.9853C51.6002 39.7815 51.7311 39.5774 51.8771 39.3734C54.3396 35.774 56.2486 31.8249 56.2486 31.8249C56.2486 31.8249 56.4236 33.0343 57.0208 35.0456C57.3124 36.0656 57.9099 37.1731 58.4343 38.2512C56.1174 40.1312 54.6893 42.3168 54.1793 43.7449C53.2614 46.3971 53.9752 47.5918 55.3305 47.8687C55.9424 47.9999 56.8168 47.7084 57.458 47.4315C58.2739 47.1693 59.2358 46.7178 60.1539 46.0471C61.7133 44.8962 63.2139 43.2931 63.1264 41.1221C63.0827 40.1312 62.8205 39.1546 62.4561 38.2074C64.4233 37.3918 66.9589 36.9399 70.1936 37.3187C77.1302 38.1346 78.4999 42.4624 78.2374 44.2843C77.9752 46.1056 76.518 47.0965 76.0374 47.4024C75.5561 47.7087 75.3961 47.8106 75.4399 48.029C75.498 48.3496 75.7311 48.3352 76.1393 48.2768C76.7077 48.1749 79.7824 46.8049 79.9133 43.4534C80.1321 39.1693 76.0518 34.4918 68.8386 34.5356ZM15.3305 52.5756C13.028 55.0818 9.82238 56.029 8.438 55.2278C6.95175 54.3678 7.53456 50.6665 10.3614 48.0146C12.0808 46.3971 14.2958 44.8959 15.7677 43.9781C16.1027 43.774 16.5983 43.4828 17.1958 43.1184C17.2977 43.0599 17.3561 43.0309 17.3561 43.0309L17.7058 42.8121C18.7402 46.6009 17.7496 49.9381 15.3305 52.5756ZM32.0883 41.1802C31.2868 43.1331 29.6111 48.1312 28.5911 47.8543C27.7168 47.6212 27.1774 43.8324 28.4161 40.0874C29.0427 38.2074 30.3686 35.9634 31.1411 35.0893C32.3943 33.6903 33.7786 33.2237 34.1136 33.7924C34.5364 34.5356 32.5836 39.9562 32.0883 41.1802ZM45.9171 47.7959C45.5818 47.9709 45.2614 48.0874 45.1155 47.9999C45.0136 47.9415 45.2614 47.7084 45.2614 47.7084C45.2614 47.7084 46.9955 45.8434 47.6802 44.9981C48.0739 44.5028 48.5399 43.9199 49.0355 43.264V43.4534C49.0355 45.6831 46.8786 47.184 45.9168 47.7959H45.9171ZM56.5836 45.3624C56.3358 45.1874 56.3796 44.6046 57.2102 42.7831C57.5308 42.069 58.2883 40.8743 59.5855 39.7231C59.7311 40.1893 59.8333 40.6412 59.8186 41.0637C59.8039 43.8762 57.7933 44.9253 56.5836 45.3624Z" fill="#CD6799"/>
</g>
<defs>
<clipPath id="clip0_926_1226">
<rect width="80" height="60" fill="white"/>
</clipPath>
</defs>
</svg>
