<svg width="60" height="60" viewBox="0 0 60 60" fill="none" xmlns="http://www.w3.org/2000/svg">
<g clip-path="url(#clip0_926_1208)">
<path d="M47.3737 28.6987C47.3737 25.5187 46.2299 23.3174 45.2512 21.6037L44.9512 21.1162C43.7624 19.2037 42.7237 17.5237 42.7237 15.5662C42.7237 13.2037 44.5162 10.9987 47.0437 10.9987C47.1187 10.9987 47.1899 11.0062 47.2612 11.0099L47.3774 11.0212C42.6381 6.66797 36.4352 4.25587 29.9999 4.26369C25.7349 4.2615 21.5364 5.32052 17.7827 7.34533C14.029 9.37013 10.8381 12.2971 8.49744 15.8624C9.09744 15.8812 9.67119 15.8962 10.1549 15.8962C12.8437 15.8962 17.0099 15.5699 17.0099 15.5699C18.3974 15.4874 18.5624 17.5237 17.1749 17.6887C17.1749 17.6887 15.7837 17.8537 14.2312 17.9324L23.6062 45.8099L29.2312 28.9124L25.2187 17.9287C23.8349 17.8462 22.5224 17.6849 22.5224 17.6849C21.1349 17.6024 21.2999 15.4799 22.6837 15.5624C22.6837 15.5624 26.9362 15.8887 29.4637 15.8887C32.1562 15.8887 36.3262 15.5624 36.3262 15.5624C37.7137 15.4799 37.8749 17.5199 36.4874 17.6849C36.4874 17.6849 35.0924 17.8462 33.5437 17.9287L42.8437 45.5924L45.4087 37.0162L45.6112 36.3674C46.6237 33.1424 47.3699 30.7612 47.3699 28.6949L47.3737 28.6987ZM4.26369 29.9999C4.26344 34.8327 5.62374 39.568 8.18893 43.6638C10.7541 47.7596 14.4206 51.0505 18.7687 53.1599L6.48744 19.5224C5.01681 22.8194 4.25902 26.3898 4.26369 29.9999Z" fill="#6375A4"/>
<path d="M22.7285 54.6864L30.4535 32.2501L38.3623 53.9251C38.4148 54.0489 38.4748 54.1651 38.546 54.2776C33.4477 56.0738 27.9128 56.2168 22.7285 54.6864ZM52.5785 17.6514C52.691 18.4726 52.7548 19.3501 52.7548 20.2989C52.7548 22.9089 52.2673 25.8451 50.7973 29.5164L42.9373 52.2414C48.7374 48.8715 52.9918 43.3692 54.7936 36.9077C56.5953 30.4461 55.8018 23.5363 52.5823 17.6514H52.5785Z" fill="#6375A4"/>
<path fill-rule="evenodd" clip-rule="evenodd" d="M0 30C0 13.4588 13.4588 0 30 0C46.5375 0 60 13.4588 60 30C60 46.5412 46.5375 60 30 60C13.4588 60 0 46.5412 0 30ZM1.37625 30C1.37625 45.7838 14.2162 58.6238 30 58.6238C45.78 58.6238 58.62 45.7838 58.62 30C58.62 14.2125 45.78 1.37625 30 1.37625C14.2125 1.37625 1.37625 14.2125 1.37625 30Z" fill="#6375A4"/>
</g>
<defs>
<clipPath id="clip0_926_1208">
<rect width="60" height="60" fill="white"/>
</clipPath>
</defs>
</svg>
