<svg width="112" height="50" viewBox="0 0 112 50" fill="none" xmlns="http://www.w3.org/2000/svg">
<path d="M25.56 6.83997C25.84 7.27996 26.08 7.87997 26.28 8.63997C26.52 9.35997 26.64 10.12 26.64 10.92C26.64 12.48 26.3 13.6 25.62 14.28C24.98 14.92 24.1 15.24 22.98 15.24H10.38V22.02H23.52C23.84 22.46 24.1 23.04 24.3 23.76C24.54 24.48 24.66 25.24 24.66 26.04C24.66 27.56 24.32 28.66 23.64 29.34C23 29.98 22.12 30.3 21 30.3H10.5V42.96C10.06 43.08 9.36 43.2 8.4 43.32C7.48 43.44 6.56 43.5 5.64 43.5C4.72 43.5 3.9 43.42 3.18 43.26C2.5 43.14 1.92 42.9 1.44 42.54C0.96 42.18 0.6 41.68 0.36 41.04C0.12 40.4 0 39.56 0 38.52V12.42C0 10.7 0.5 9.33996 1.5 8.33996C2.5 7.33996 3.86 6.83997 5.58 6.83997H25.56Z" fill="black"/>
<path d="M47.0796 31.86V43.38C46.6396 43.5 45.9396 43.62 44.9796 43.74C44.0596 43.86 43.1396 43.92 42.2196 43.92C41.2996 43.92 40.4796 43.84 39.7596 43.68C39.0796 43.56 38.4996 43.32 38.0196 42.96C37.5796 42.6 37.2396 42.1 36.9996 41.46C36.7596 40.82 36.6396 39.98 36.6396 38.94V10.68C36.6396 9.83999 36.8596 9.19999 37.2996 8.75999C37.7796 8.27999 38.4196 7.89999 39.2196 7.61999C40.5796 7.13999 42.1596 6.79999 43.9596 6.59999C45.7596 6.35999 47.6796 6.23999 49.7196 6.23999C55.2396 6.23999 59.3997 7.39999 62.1996 9.71999C64.9997 12.04 66.3997 15.18 66.3997 19.14C66.3997 21.62 65.7597 23.74 64.4797 25.5C63.1996 27.26 61.6796 28.62 59.9196 29.58C61.3596 31.54 62.7797 33.38 64.1797 35.1C65.5796 36.82 66.6796 38.38 67.4797 39.78C67.0796 41.18 66.3397 42.26 65.2597 43.02C64.2197 43.74 63.0397 44.1 61.7197 44.1C60.8397 44.1 60.0796 44 59.4396 43.8C58.7996 43.6 58.2397 43.32 57.7597 42.96C57.2797 42.6 56.8397 42.16 56.4396 41.64C56.0396 41.12 55.6597 40.56 55.2997 39.96L50.2597 31.86H47.0796ZM50.8596 23.88C52.3796 23.88 53.5796 23.5 54.4597 22.74C55.3396 21.94 55.7796 20.78 55.7796 19.26C55.7796 17.74 55.2796 16.6 54.2796 15.84C53.3196 15.04 51.7796 14.64 49.6596 14.64C49.0596 14.64 48.5796 14.66 48.2196 14.7C47.8596 14.74 47.4596 14.8 47.0196 14.88V23.88H50.8596Z" fill="black"/>
<path d="M87.9205 35.58C88.3605 35.66 88.9005 35.74 89.5405 35.82C90.1805 35.86 90.7805 35.88 91.3405 35.88C92.7005 35.88 93.9405 35.68 95.0605 35.28C96.2205 34.88 97.2005 34.26 98.0005 33.42C98.8405 32.58 99.4805 31.5 99.9205 30.18C100.4 28.82 100.64 27.2 100.64 25.32C100.64 21.72 99.8005 19.02 98.1205 17.22C96.4405 15.38 94.2005 14.46 91.4005 14.46C90.8405 14.46 90.2605 14.48 89.6605 14.52C89.1005 14.56 88.5205 14.62 87.9205 14.7V35.58ZM91.2805 44.34C90.6005 44.34 89.8205 44.32 88.9405 44.28C88.0605 44.24 87.1405 44.16 86.1805 44.04C85.2605 43.92 84.3205 43.76 83.3605 43.56C82.4405 43.4 81.5805 43.16 80.7805 42.84C78.5805 42 77.4805 40.54 77.4805 38.46V10.44C77.4805 9.6 77.7005 8.96 78.1405 8.52C78.6205 8.04 79.2605 7.66 80.0605 7.38C81.7805 6.82 83.6005 6.46 85.5205 6.3C87.4405 6.1 89.1605 6 90.6805 6C93.8005 6 96.6205 6.38 99.1405 7.14C101.7 7.9 103.88 9.08 105.68 10.68C107.52 12.24 108.94 14.22 109.94 16.62C110.94 19.02 111.44 21.86 111.44 25.14C111.44 28.34 110.96 31.14 110 33.54C109.04 35.9 107.66 37.9 105.86 39.54C104.1 41.14 101.98 42.34 99.5005 43.14C97.0205 43.94 94.2805 44.34 91.2805 44.34Z" fill="black"/>
</svg>
